{"title":"Interview With A Vampire 1994 English German DVD-R (RLG)","uid":9335281,"size":7343048704,"categoryP":"video","categoryS":"movies_dvdr","magnet":"?xt=urn:btih:279b9236a9d50b91b76506892ad127f0002f8651&amp;dn=Interview+With+A+Vampire+1994+English+German+DVD-R+%28RLG%29&amp;tr=udp%3A%2F%2Ftracker.openbittorrent.com%3A80&amp;tr=udp%3A%2F%2Fopen.demonii.com%3A1337&amp;tr=udp%3A%2F%2Ftracker.coppersurfer.tk%3A6969&amp;tr=udp%3A%2F%2Fexodus.desync.com%3A6969","seeders":0,"leechers":1,"uploader":"RedLegsGreaves","files":-1,"time":1386841754,"description":" &lt;a href=&quot;http://www.imdb.com/title/tt0110148/&quot; rel=&quot;nofollow&quot; target=&quot;_NEW&quot;&gt;http://www.imdb.com/title/tt0110148/&lt;/a&gt;\nA vampire tells his epic life story: love, betrayal, loneliness, and hunger.\n\n\nRelease date: 11 November 1994\nLanguages: English , German\nSubtitles: English, German, French, Romanian, Norwegian, Swedish, Turkish, Greek, Finnish, Bulgarian ,Croatian, Dutch, English,\n\n\nFor Newer Users.\nSimply Drag downloaded folder to your Media Player. This is a PAL DVD.\nThis is ripped so you would have best quality, menu, bonus/special feature, language options etc.\nNote:DVDs may not have have all* features.\n\n\n\nVideo\nID : 224 (0xE0)\nFormat : MPEG Video\nFormat version : Version 2\nFormat profile : Main@Main\nFormat settings, BVOP : Yes\nFormat settings, Matrix : Custom\nFormat settings, GOP : M=3, N=15\nDuration : 21mn 40s\nBit rate mode : Variable\nBit rate : 5 512 Kbps\nMaximum bit rate : 7 500 Kbps\nWidth : 720 pixels\nHeight : 576 pixels\nDisplay aspect ratio : 16:9\nFrame rate : 25.000 fps\nStandard : PAL\nColor space : YUV\nChroma subsampling : 4:2:0\nBit depth : 8 bits\nScan type : Progressive\nScan order : Top Field First\nCompression mode : Lossy\nBits/(Pixel*Frame) : 0.532\nTime code of first frame : 01:21:10:23\nTime code source : Group of pictures header\nStream size : 855 MiB (83%)\n\nAudio\nID : 189 (0xBD)-128 (0x80)\nFormat : AC-3\nFormat/Info : Audio Coding 3\nMode extension : CM (complete main)\nFormat settings, Endianness : Big\nMuxing mode : DVD-Video\nDuration : 21mn 40s\nBit rate mode : Constant\nBit rate : 384 Kbps\nChannel count : 6 channels\nChannel positions : Front: L C R, Side: L R, LFE\nSampling rate : 48.0 KHz\nBit depth : 16 bits\nCompression mode : Lossy\nDelay relative to video : -456ms\nStream size : 59.5 MiB (6%)","torrent":{"xt":"urn:btih:279b9236a9d50b91b76506892ad127f0002f8651","amp;dn":"Interview+With+A+Vampire+1994+English+German+DVD-R+%28RLG%29","amp;tr":["udp%3A%2F%2Ftracker.openbittorrent.com%3A80","udp%3A%2F%2Fopen.demonii.com%3A1337","udp%3A%2F%2Ftracker.coppersurfer.tk%3A6969","udp%3A%2F%2Fexodus.desync.com%3A6969"],"infoHash":"279b9236a9d50b91b76506892ad127f0002f8651","infoHashBuffer":{"type":"Buffer","data":[39,155,146,54,169,213,11,145,183,101,6,137,42,209,39,240,0,47,134,81]},"announce":[],"urlList":[]}}